HIERARCHY
ROOT Hips
{
	OFFSET 0.00000 0.00000 0.00000
	CHANNELS 6 Xposition Yposition Zposition Zrotation Yrotation Xrotation 
	JOINT LHipJoint
	{
		OFFSET 0 0 0
		CHANNELS 3 Zrotation Yrotation Xrotation
		JOINT LeftUpLeg
		{
			OFFSET 1.52977 -1.71332 0.88991
			CHANNELS 3 Zrotation Yrotation Xrotation
			JOINT LeftLeg
			{
				OFFSET 2.23949 -6.15296 0.00000
				CHANNELS 3 Zrotation Yrotation Xrotation
				JOINT LeftFoot
				{
					OFFSET 2.68396 -7.37412 0.00000
					CHANNELS 3 Zrotation Yrotation Xrotation
					JOINT LeftToeBase
					{
						OFFSET 0.20538 -0.56428 2.52710
						CHANNELS 3 Zrotation Yrotation Xrotation
						End Site
						{
							OFFSET 0.00000 -0.00000 1.29919
						}
					}
				}
			}
		}
	}
	JOINT RHipJoint
	{
		OFFSET 0 0 0
		CHANNELS 3 Zrotation Yrotation Xrotation
		JOINT RightUpLeg
		{
			OFFSET -1.45689 -1.71333 0.88991
			CHANNELS 3 Zrotation Yrotation Xrotation
			JOINT RightLeg
			{
				OFFSET -2.36700 -6.50329 0.00000
				CHANNELS 3 Zrotation Yrotation Xrotation
				JOINT RightFoot
				{
					OFFSET -2.69814 -7.41308 0.00000
					CHANNELS 3 Zrotation Yrotation Xrotation
					JOINT RightToeBase
					{
						OFFSET -0.18734 -0.51471 2.37479
						CHANNELS 3 Zrotation Yrotation Xrotation
						End Site
						{
							OFFSET -0.00000 -0.00000 1.22113
						}
					}
				}
			}
		}
	}
	JOINT LowerBack
	{
		OFFSET 0 0 0
		CHANNELS 3 Zrotation Yrotation Xrotation
		JOINT Spine
		{
			OFFSET 0.04294 2.14638 -0.31163
			CHANNELS 3 Zrotation Yrotation Xrotation
			JOINT Spine1
			{
				OFFSET -0.00400 2.17216 0.01486
				CHANNELS 3 Zrotation Yrotation Xrotation
				JOINT Neck
				{
					OFFSET 0 0 0
					CHANNELS 3 Zrotation Yrotation Xrotation
					JOINT Neck1
					{
						OFFSET 0.03869 1.76598 0.14916
						CHANNELS 3 Zrotation Yrotation Xrotation
						JOINT Head
						{
							OFFSET -0.00760 1.75513 -0.18948
							CHANNELS 3 Zrotation Yrotation Xrotation
							End Site
							{
								OFFSET -0.00601 1.82444 -0.08310
							}
						}
					}
				}
				JOINT LeftShoulder
				{
					OFFSET 0 0 0
					CHANNELS 3 Zrotation Yrotation Xrotation
					JOINT LeftArm
					{
						OFFSET 3.73696 0.92058 0.01733
						CHANNELS 3 Zrotation Yrotation Xrotation
						JOINT LeftForeArm
						{
							OFFSET 5.22771 -0.00000 0.00000
							CHANNELS 3 Zrotation Yrotation Xrotation
							JOINT LeftHand
							{
								OFFSET 3.45251 -0.00000 0.00000
								CHANNELS 3 Zrotation Yrotation Xrotation
								JOINT LeftFingerBase
								{
									OFFSET 0 0 0
									CHANNELS 3 Zrotation Yrotation Xrotation
									JOINT LeftHandIndex1
									{
										OFFSET 0.55212 -0.00000 0.00000
										CHANNELS 3 Zrotation Yrotation Xrotation
										End Site
										{
											OFFSET 0.44513 -0.00000 0.00000
										}
									}
								}
								JOINT LThumb
								{
									OFFSET 0 0 0
									CHANNELS 3 Zrotation Yrotation Xrotation
									End Site
									{
										OFFSET 0.45193 -0.00000 0.45193
									}
								}
							}
						}
					}
				}
				JOINT RightShoulder
				{
					OFFSET 0 0 0
					CHANNELS 3 Zrotation Yrotation Xrotation
					JOINT RightArm
					{
						OFFSET -3.63819 0.83094 -0.13694
						CHANNELS 3 Zrotation Yrotation Xrotation
						JOINT RightForeArm
						{
							OFFSET -5.23980 -0.00000 -0.00000
							CHANNELS 3 Zrotation Yrotation Xrotation
							JOINT RightHand
							{
								OFFSET -3.48042 -0.00000 -0.00000
								CHANNELS 3 Zrotation Yrotation Xrotation
								JOINT RightFingerBase
								{
									OFFSET 0 0 0
									CHANNELS 3 Zrotation Yrotation Xrotation
									JOINT RightHandIndex1
									{
										OFFSET -0.61871 -0.00000 0.00000
										CHANNELS 3 Zrotation Yrotation Xrotation
										End Site
										{
											OFFSET -0.49882 -0.00000 0.00000
										}
									}
								}
								JOINT RThumb
								{
									OFFSET 0 0 0
									CHANNELS 3 Zrotation Yrotation Xrotation
									End Site
									{
										OFFSET -0.50644 -0.00000 0.50644
									}
								}
							}
						}
					}
				}
			}
		}
	}
}
MOTION
Frames: 10
Frame Time: .0083333
48.674 16.3526 -5.078 0 0 0 0 0 0 -21 0 0 0 0 0 0 0 0 0 0 0 0 0 0 21 0 0 0 0 0 0 0 0 0 0 0 0 0 0 0 0 0 0 0 0 0 0 -16 0 0 21 0 0 11 0 0 0 -8 0 0 0 0 0 0 0 0 0 0 0 0 0 0 0 0 0 0 0 0 8 0 0 0 0 0 0 0 0 0 0 0 0 0 0 0 0 0
48.6740 16.3526 -5.0780 -116.9630 86.9736 -117.7490 0.0000 0.0000 0.0000 -17.5033 5.2337 3.4136 0.4080 4.1006 11.3600 0.5906 1.9040 -15.3309 0.1135 -2.1719 -5.9809 0.0000 0.0000 0.0000 25.2286 6.3074 -5.3487 -2.8333 -10.4201 30.3482 -1.7219 -4.3746 -26.6813 -0.1075 -2.1138 5.8202 2.0322 -0.9921 -1.3560 0.1605 -1.3711 1.7070 -1.0208 -0.6448 2.4678 1.3610 -0.4343 -6.6207 1.8087 -0.8207 5.4933 0.3103 -0.3059 2.9126 -0.0000 -0.0000 0.0000 -87.7006 1.3115 28.3444 12.4215 -20.4338 -2.2473 -0.0000 0.0000 -15.8532 17.4945 12.8349 4.0052 -7.1250 0.0000 -0.0000 -8.9205 43.2371 0.3914 -0.0000 -0.0000 0.0000 90.4897 -0.8841 21.5348 -13.1030 21.4379 -2.4908 0.0000 0.0000 3.5361 -19.1756 -2.8959 1.0065 7.1250 -0.0000 -0.0000 6.0326 -33.0033 1.7818
48.6736 16.3527 -5.0766 -117.7000 87.0023 -118.4910 0.0000 0.0000 0.0000 -17.5422 5.2356 3.4096 0.4082 4.1015 11.3625 0.5928 1.8597 -15.3359 0.1111 -2.1492 -5.9180 0.0000 0.0000 0.0000 25.1907 6.3185 -5.3378 -2.8335 -10.4205 30.3496 -1.7259 -4.3966 -26.7205 -0.1081 -2.1198 5.8368 1.9695 -0.9996 -1.3600 0.1565 -1.3796 1.7093 -0.9901 -0.6502 2.4734 1.3723 -0.4277 -6.6235 1.7889 -0.8117 5.4863 0.3023 -0.3020 2.9106 -0.0000 0.0000 0.0000 -87.6975 1.3131 28.3774 12.4290 -20.4449 -2.2499 -0.0000 0.0000 -15.8629 17.4686 12.8640 4.0078 -7.1250 0.0000 -0.0000 -8.9500 43.2642 0.3867 -0.0000 0.0000 0.0000 90.4815 -0.8831 21.5206 -13.1034 21.4385 -2.4909 0.0000 0.0000 3.5783 -19.1820 -2.7679 0.9624 7.1250 -0.0000 -0.0000 6.0166 -32.8688 1.7966
48.6734 16.3525 -5.0754 -117.0150 86.9620 -117.8060 0.0000 0.0000 0.0000 -17.4784 5.2458 3.4001 0.4088 4.1044 11.3707 0.5887 1.8957 -15.3035 0.1183 -2.2175 -6.1072 0.0000 0.0000 0.0000 25.2590 6.3490 -5.3292 -2.8327 -10.4192 30.3451 -1.7265 -4.4183 -26.7354 -0.1093 -2.1316 5.8695 2.0130 -0.9945 -1.3706 0.1753 -1.3745 1.7091 -0.9952 -0.6469 2.4789 1.3733 -0.4221 -6.6372 1.8007 -0.8057 5.5046 0.3063 -0.2982 2.9195 -0.0000 0.0000 0.0000 -87.7038 1.3092 28.3809 12.4171 -20.4272 -2.2457 -0.0000 0.0000 -15.8712 17.4895 12.8049 3.9948 -7.1250 0.0000 -0.0000 -8.9185 43.2057 0.3983 -0.0000 0.0000 0.0000 90.4699 -0.8681 21.5140 -13.0932 21.4236 -2.4872 0.0000 0.0000 3.6109 -19.2026 -2.8752 1.0009 7.1250 -0.0000 -0.0000 6.0090 -32.9824 1.7778
48.6726 16.3530 -5.0751 -117.5150 86.9683 -118.3050 0.0000 0.0000 0.0000 -17.4971 5.2299 3.3963 0.4093 4.1068 11.3772 0.5906 1.8714 -15.3142 0.1145 -2.1812 -6.0067 0.0000 0.0000 0.0000 25.2349 6.3187 -5.3399 -2.8325 -10.4188 30.3439 -1.7253 -4.4055 -26.7209 -0.1085 -2.1235 5.8470 2.0073 -0.9957 -1.3586 0.1668 -1.3754 1.6944 -1.0004 -0.6478 2.4568 1.3763 -0.4352 -6.6341 1.7988 -0.8235 5.5235 0.3043 -0.3068 2.9254 0.0000 -0.0000 0.0000 -87.6961 1.3292 28.4195 12.4238 -20.4372 -2.2481 -0.0000 0.0000 -15.8922 17.4904 12.8515 4.0093 -7.1250 0.0000 -0.0000 -8.9278 43.2538 0.3880 0.0000 -0.0000 0.0000 90.4615 -0.8888 21.5193 -13.0919 21.4218 -2.4868 0.0000 0.0000 3.5982 -19.1440 -3.5579 1.2341 7.1250 -0.0000 -0.0000 6.1176 -33.6988 1.7037
48.6724 16.3531 -5.0744 -117.6410 86.9657 -118.4320 0.0000 0.0000 0.0000 -17.4949 5.2251 3.3850 0.4106 4.1135 11.3962 0.5912 1.8626 -15.3176 0.1143 -2.1795 -6.0019 0.0000 0.0000 0.0000 25.2358 6.3131 -5.3384 -2.8316 -10.4173 30.3389 -1.7251 -4.4062 -26.7198 -0.1087 -2.1259 5.8536 2.0107 -0.9937 -1.3586 0.1660 -1.3728 1.6880 -1.0030 -0.6466 2.4502 1.3763 -0.4426 -6.6328 1.8015 -0.8337 5.5311 0.3048 -0.3117 2.9278 -0.0000 0.0000 0.0000 -87.6921 1.3375 28.4484 12.4246 -20.4384 -2.2484 -0.0000 0.0000 -15.9076 17.4910 12.8580 4.0114 -7.1250 0.0000 -0.0000 -8.9287 43.2605 0.3866 -0.0000 0.0000 0.0000 90.4526 -0.8954 21.5199 -13.0887 21.4171 -2.4856 0.0000 0.0000 3.6031 -19.0976 -4.1691 1.4419 7.1250 -0.0000 -0.0000 6.2141 -34.3397 1.6337
48.6721 16.3533 -5.0738 -117.7550 86.9626 -118.5470 0.0000 0.0000 0.0000 -17.4913 5.2238 3.3815 0.4107 4.1141 11.3979 0.5912 1.8558 -15.3134 0.1138 -2.1754 -5.9908 0.0000 0.0000 0.0000 25.2371 6.3076 -5.3403 -2.8314 -10.4170 30.3379 -1.7251 -4.4026 -26.7180 -0.1090 -2.1286 5.8613 2.0164 -0.9911 -1.3609 0.1648 -1.3695 1.6824 -1.0073 -0.6449 2.4457 1.3743 -0.4509 -6.6335 1.8069 -0.8452 5.5378 0.3063 -0.3171 2.9302 -0.0000 0.0000 0.0000 -87.6883 1.3434 28.4749 12.4251 -20.4391 -2.2485 -0.0000 0.0000 -15.9227 17.4928 12.8614 4.0129 -7.1250 0.0000 -0.0000 -8.9279 43.2642 0.3857 -0.0000 0.0000 0.0000 90.4437 -0.9013 21.5242 -13.0868 21.4142 -2.4849 0.0000 0.0000 3.6017 -19.0464 -4.8466 1.6707 7.1250 -0.0000 -0.0000 6.3256 -35.0492 1.5537
48.6719 16.3535 -5.0730 -117.9110 86.9595 -118.7010 0.0000 0.0000 0.0000 -17.4886 5.2211 3.3691 0.4117 4.1188 11.4112 0.5919 1.8414 -15.3152 0.1130 -2.1676 -5.9692 0.0000 0.0000 0.0000 25.2371 6.3023 -5.3429 -2.8308 -10.4160 30.3347 -1.7255 -4.3971 -26.7176 -0.1095 -2.1336 5.8751 2.0212 -0.9890 -1.3654 0.1637 -1.3669 1.6770 -1.0110 -0.6436 2.4426 1.3717 -0.4587 -6.6326 1.8112 -0.8556 5.5398 0.3077 -0.3222 2.9308 -0.0000 -0.0000 0.0000 -87.6859 1.3490 28.4994 12.4265 -20.4412 -2.2490 -0.0000 0.0000 -15.9374 17.4923 12.8690 4.0151 -7.1250 0.0000 -0.0000 -8.9300 43.2719 0.3841 -0.0000 -0.0000 0.0000 90.4341 -0.9077 21.5314 -13.0858 21.4128 -2.4845 0.0000 0.0000 3.5946 -19.0059 -5.4334 1.8680 7.1250 -0.0000 -0.0000 6.4231 -35.6633 1.4813
48.6716 16.3535 -5.0723 -118.0570 86.9570 -118.8460 0.0000 0.0000 0.0000 -17.4855 5.2209 3.3550 0.4127 4.1240 11.4258 0.5925 1.8271 -15.3153 0.1125 -2.1626 -5.9552 0.0000 0.0000 0.0000 25.2376 6.2995 -5.3444 -2.8303 -10.4151 30.3316 -1.7261 -4.3926 -26.7199 -0.1101 -2.1391 5.8903 2.0242 -0.9876 -1.3732 0.1633 -1.3652 1.6739 -1.0132 -0.6427 2.4438 1.3686 -0.4645 -6.6306 1.8150 -0.8632 5.5364 0.3091 -0.3259 2.9293 -0.0000 -0.0000 0.0000 -87.6852 1.3525 28.5186 12.4281 -20.4436 -2.2496 -0.0000 0.0000 -15.9487 17.4928 12.8715 4.0159 -7.1250 0.0000 -0.0000 -8.9300 43.2745 0.3835 -0.0000 -0.0000 0.0000 90.4246 -0.9120 21.5413 -13.0861 21.4132 -2.4846 0.0000 0.0000 3.5838 -18.9856 -5.8363 2.0037 7.1250 -0.0000 -0.0000 6.4860 -36.0850 1.4289
48.6713 16.3536 -5.0715 -118.1970 86.9512 -118.9820 0.0000 0.0000 0.0000 -17.4785 5.2210 3.3376 0.4139 4.1298 11.4421 0.5931 1.8103 -15.3152 0.1123 -2.1604 -5.9491 0.0000 0.0000 0.0000 25.2421 6.2978 -5.3473 -2.8297 -10.4141 30.3283 -1.7268 -4.3904 -26.7236 -0.1106 -2.1446 5.9054 2.0282 -0.9874 -1.3803 0.1648 -1.3653 1.6700 -1.0140 -0.6427 2.4437 1.3688 -0.4667 -6.6318 1.8147 -0.8662 5.5351 0.3089 -0.3274 2.9291 0.0000 0.0000 0.0000 -87.6865 1.3564 28.5318 12.4294 -20.4455 -2.2500 -0.0000 0.0000 -15.9579 17.4945 12.8763 4.0178 -7.1250 0.0000 -0.0000 -8.9296 43.2797 0.3823 0.0000 0.0000 0.0000 90.4142 -0.9164 21.5556 -13.0866 21.4139 -2.4848 0.0000 0.0000 3.5689 -18.9833 -6.0546 2.0780 7.1250 -0.0000 -0.0000 6.5135 -36.3139 1.3985
